<?xml version="1.0" encoding="utf-8"?>
<!-- Generator: Adobe Illustrator 24.0.0, SVG Export Plug-In . SVG Version: 6.00 Build 0)  -->
<svg version="1.1" id="Слой_1" xmlns="http://www.w3.org/2000/svg" xmlns:xlink="http://www.w3.org/1999/xlink" x="0px" y="0px"
	 viewBox="0 0 64 80" style="enable-background:new 0 0 64 80;" xml:space="preserve">
<style type="text/css">
	.st0{fill:#0C1531;}
</style>
<title>more, detail, show, arrow</title>
<g>
	<path class="st0" d="M51,11.5H13c-0.8,0-1.5,0.7-1.5,1.5c0,0,0,0,0,0v38c0,0.8,0.7,1.5,1.5,1.5c0,0,0,0,0,0h38
		c0.8,0,1.5-0.7,1.5-1.5c0,0,0,0,0,0V13C52.5,12.2,51.8,11.5,51,11.5C51,11.5,51,11.5,51,11.5z M39.7,33.2l-11.5,9.1
		c-0.6,0.5-1.6,0.4-2.1-0.3c-0.5-0.6-0.4-1.6,0.2-2.1c0,0,0,0,0,0l10-8l-10-8c-0.6-0.5-0.8-1.5-0.2-2.1c0.5-0.6,1.5-0.8,2.1-0.2
		l11.5,9.1c0.7,0.5,0.8,1.5,0.2,2.1C39.9,33,39.8,33.1,39.7,33.2z"/>
</g>
</svg>
