<?xml version="1.0" encoding="utf-8"?>
<!-- Generator: Adobe Illustrator 24.0.0, SVG Export Plug-In . SVG Version: 6.00 Build 0)  -->
<svg version="1.1" id="Слой_1" xmlns="http://www.w3.org/2000/svg" xmlns:xlink="http://www.w3.org/1999/xlink" x="0px" y="0px"
	 viewBox="0 0 100 125" style="enable-background:new 0 0 100 125;" xml:space="preserve">
<style type="text/css">
	.st0{fill:#0C1531;}
</style>
<g>
	<path class="st0" d="M69.7,23.5C69.7,35.9,60.8,46,50,46c-10.9,0-19.7-10.1-19.7-22.5S39.1,1,50,1S69.7,11.1,69.7,23.5z"/>
</g>
<path class="st0" d="M84.8,82.7L82,73c-1.9-5.4-4-10.8-7.2-15.6c-2.9-4.2-8.8-11-14.5-8.2c-2.2,1.1-5.4,2.2-9.2,2.5l5.3,7.1L50,80
	l-6.4-21.3l5.3-7.1c-3.8-0.3-7-1.4-9.2-2.5C29.1,44,20,65.9,18,73l-2.8,9.7c-1.3,4.4,0.7,9.3,4.6,10.8c10.4,4.1,20.6,5.5,29.9,5.4
	c0.1,0,0.3,0,0.4,0c0.1,0,0.3,0,0.4,0c9.2,0.1,19.5-1.3,29.9-5.4C84.1,92,86.1,87.1,84.8,82.7z"/>
</svg>
