<?xml version="1.0" encoding="utf-8"?>
<!-- Generator: Adobe Illustrator 24.0.0, SVG Export Plug-In . SVG Version: 6.00 Build 0)  -->
<svg version="1.1" id="Слой_1" xmlns="http://www.w3.org/2000/svg" xmlns:xlink="http://www.w3.org/1999/xlink" x="0px" y="0px"
	 viewBox="0 0 55 68.8" style="enable-background:new 0 0 55 68.8;" xml:space="preserve">
<style type="text/css">
	.st0{fill:#0C1531;}
</style>
<g>
	<g>
		<path class="st0" d="M45.1,48.7H9.9c-0.6,0-1,0.4-1,1s0.4,1,1,1h35.2c0.6,0,1-0.4,1-1S45.6,48.7,45.1,48.7z"/>
	</g>
	<g>
		<path class="st0" d="M27.5,25.7c4.1,0,7.4-5.2,7.4-9.5c0-4.2-3.3-7.7-7.4-7.7c-4.1,0-7.4,3.4-7.4,7.7
			C20.1,20.5,23.4,25.7,27.5,25.7z"/>
	</g>
	<g>
		<path class="st0" d="M17.1,20.7h0.9c0.5,0,1-0.4,1-1v-6.1c0-0.5-0.3-0.8-0.7-0.9c0.5-3.1,3.3-6.3,7-6.3h4.3c1.8,0,3.6,0.8,5,2.3
			c1.1,1.2,1.8,2.6,2,4c-0.4,0.1-0.7,0.5-0.7,0.9v6.1c0,0.6,0.5,1,1,1h0.9c2.4,0,4.3-1.8,4.3-4c0-2-1.5-3.6-3.5-4
			c-0.2-2-1.1-3.9-2.6-5.4c-0.9-0.9-1.9-1.7-3-2.2c-1.1-0.5-2.3-0.8-3.5-0.8h-4.3c-4.8,0-8.5,4.2-9,8.3c-2,0.3-3.5,2-3.5,4
			C12.9,18.9,14.8,20.7,17.1,20.7z"/>
	</g>
	<g>
		<path class="st0" d="M14.1,44.9c0.4,1.5,1.9,2.7,3.7,2.7h19.4c1.8,0,3.4-1.1,3.7-2.6l2.5-9c0.2-0.7,0.1-1.4-0.2-2H11.8
			c-0.3,0.6-0.4,1.3-0.2,2L14.1,44.9z"/>
	</g>
	<g>
		<path class="st0" d="M16.5,31.9h22c-1.4-2-3.7-4-6.4-4h-9.3C20.2,27.9,17.9,29.9,16.5,31.9z"/>
	</g>
</g>
</svg>
