<?xml version="1.0" encoding="utf-8"?>
<!-- Generator: Adobe Illustrator 24.0.0, SVG Export Plug-In . SVG Version: 6.00 Build 0)  -->
<svg version="1.1" id="Слой_1" xmlns="http://www.w3.org/2000/svg" xmlns:xlink="http://www.w3.org/1999/xlink" x="0px" y="0px"
	 viewBox="0 0 66 82.5" style="enable-background:new 0 0 66 82.5;" xml:space="preserve">
<style type="text/css">
	.st0{fill:#0C1531;}
</style>
<g>
	<g>
		<path class="st0" d="M64.4,40.6l-4.6-1.9c-0.4-1.2-0.8-2.3-1.4-3.3l1.9-4.6c0.1-0.4,0.1-0.8-0.2-1.1L57.3,27
			c-0.3-0.3-0.7-0.4-1.1-0.2l-4.6,1.9c-1-0.6-2.1-1-3.3-1.4l-1.9-4.6c-0.2-0.4-0.5-0.6-0.9-0.6h-3.9c-0.4,0-0.8,0.3-0.9,0.6
			l-1.9,4.6c-1.2,0.3-2.3,0.8-3.3,1.4l-4.6-1.9c-0.4-0.1-0.8-0.1-1.1,0.2L27,29.7c-0.3,0.3-0.4,0.7-0.2,1.1l1.9,4.6
			c-0.6,1-1,2.1-1.4,3.3l-4.6,1.9c-0.4,0.1-0.6,0.5-0.6,0.9v3.9c0,0.4,0.2,0.8,0.6,0.9l4.6,1.9c0.3,1.1,0.8,2.3,1.4,3.3l-1.9,4.6
			c-0.1,0.4-0.1,0.8,0.2,1.1l2.8,2.8c0.3,0.3,0.7,0.4,1.1,0.2l4.6-1.9c1,0.6,2.1,1,3.3,1.4l1.9,4.6c0.2,0.4,0.5,0.6,0.9,0.6h3.9
			c0.4,0,0.8-0.2,0.9-0.6l1.9-4.6c1.2-0.3,2.2-0.8,3.3-1.4l4.6,1.9c0.4,0.1,0.8,0.1,1.1-0.2l2.8-2.8c0.3-0.3,0.4-0.7,0.2-1.1
			l-1.9-4.6c0.6-1,1-2.1,1.4-3.3l4.6-1.9c0.4-0.2,0.6-0.5,0.6-0.9v-3.9C65,41.2,64.8,40.8,64.4,40.6z M50.3,43.5
			c0,3.7-3,6.8-6.8,6.8c-3.7,0-6.8-3-6.8-6.8s3-6.8,6.8-6.8S50.3,39.8,50.3,43.5z"/>
	</g>
	<g>
		<path class="st0" d="M32.3,19.9l-2.7-2.4c0-0.8,0-1.6-0.1-2.5l2.4-2.6c0.3-0.3,0.3-0.7,0.2-1.1l-1.2-2.6c-0.2-0.4-0.6-0.7-1-0.7
			l-3.6,0.2c-0.6-0.6-1.2-1.2-1.8-1.6L24.4,3c0-0.4-0.3-0.8-0.7-0.9l-2.8-1c-0.4-0.1-0.8,0-1.1,0.3L17.5,4c-0.8,0-1.6,0-2.4,0.1
			l-2.6-2.4c-0.3-0.3-0.7-0.3-1.1-0.2L8.6,2.7C8.2,2.9,8,3.3,8,3.7l0.2,3.6C7.6,7.9,7,8.5,6.6,9.1L3,9.3c-0.4,0-0.8,0.3-0.9,0.7
			l-1,2.8c-0.1,0.4,0,0.8,0.3,1.1L4,16.2c0,0.8,0,1.6,0.1,2.5l-2.4,2.6c-0.3,0.3-0.3,0.7-0.2,1.1L2.7,25c0.2,0.4,0.5,0.6,1,0.6
			l3.6-0.2C7.9,26,8.5,26.6,9.1,27l0.2,3.6c0,0.4,0.3,0.8,0.7,0.9l2.8,1c0.1,0,0.2,0.1,0.3,0.1c0.3,0,0.5-0.1,0.7-0.3l2.4-2.7
			c0.8,0,1.6,0,2.4-0.1l2.7,2.4c0.3,0.3,0.7,0.3,1.1,0.2l2.6-1.2c0.4-0.2,0.6-0.5,0.6-0.9l-0.2-3.6c0.6-0.6,1.2-1.2,1.6-1.8l3.6-0.1
			c0.4,0,0.8-0.3,0.9-0.7l1-2.8C32.7,20.6,32.6,20.2,32.3,19.9z M21.6,16.8c0,2.6-2.1,4.8-4.8,4.8c-2.6,0-4.8-2.1-4.8-4.8
			s2.1-4.8,4.8-4.8C19.5,12,21.6,14.2,21.6,16.8z"/>
	</g>
	<g>
		<path class="st0" d="M64.7,14.2l-1.8-1.6c0-0.5,0-1-0.1-1.5l1.6-1.8c0.3-0.3,0.3-0.7,0.2-1.1l-0.9-1.8c-0.2-0.4-0.5-0.6-1-0.6
			L60.5,6c-0.3-0.4-0.7-0.7-1.1-1l-0.1-2.4c0-0.4-0.3-0.8-0.7-0.9L56.7,1c-0.4-0.1-0.8,0-1.1,0.3L54,3.1c-0.5,0-1,0-1.5,0.1
			l-1.7-1.6c-0.3-0.3-0.7-0.3-1.1-0.2l-1.8,0.9c-0.4,0.2-0.6,0.5-0.6,1l0.1,2.4c-0.4,0.3-0.7,0.7-1,1.1L44,6.7
			c-0.4,0-0.8,0.3-0.9,0.7l-0.7,1.9c-0.1,0.4,0,0.8,0.3,1.1l1.8,1.6c0,0.5,0,1,0.1,1.5L43,15.2c-0.3,0.3-0.3,0.7-0.2,1.1l0.9,1.8
			c0.2,0.4,0.6,0.6,1,0.6l2.4-0.1c0.3,0.4,0.7,0.7,1.1,1l0.1,2.4c0,0.4,0.3,0.8,0.7,0.9l1.9,0.7c0.1,0,0.2,0.1,0.3,0.1
			c0.3,0,0.5-0.1,0.7-0.3l1.6-1.8c0.5,0,1,0,1.5-0.1l1.8,1.6c0.3,0.3,0.7,0.3,1.1,0.2l1.8-0.9c0.4-0.2,0.6-0.6,0.6-1L60,19.1
			c0.4-0.3,0.7-0.7,1-1.1l2.4-0.1c0.4,0,0.8-0.3,0.9-0.7l0.7-1.9C65.1,14.9,65,14.5,64.7,14.2z M56.7,12.3c0,1.7-1.4,3-3,3
			c-1.7,0-3-1.4-3-3s1.4-3,3-3C55.4,9.3,56.7,10.6,56.7,12.3z"/>
	</g>
</g>
</svg>
