<svg width="39" height="39" viewBox="0 0 39 39" fill="none" xmlns="http://www.w3.org/2000/svg">
<path fill-rule="evenodd" clip-rule="evenodd" d="M39 19.5C39 30.2689 30.2689 39 19.5 39C8.73112 39 0 30.2689 0 19.5C0 8.73112 8.73112 0 19.5 0C30.2689 0 39 8.73112 39 19.5ZM20.1987 14.3959C18.3024 15.184 14.5113 16.8171 8.827 19.2936C7.904 19.6609 7.41975 20.02 7.37587 20.371C7.30113 20.9657 8.04537 21.1998 9.05612 21.5166C9.19425 21.5605 9.33725 21.6044 9.4835 21.6531C10.4796 21.9765 11.8186 22.3551 12.5141 22.3697C13.1463 22.3827 13.8515 22.1228 14.6299 21.5898C19.9404 18.0034 22.6817 16.1915 22.854 16.1525C22.9759 16.1249 23.1449 16.0891 23.2586 16.1915C23.3724 16.2922 23.361 16.484 23.3496 16.536C23.2749 16.8496 20.3596 19.5618 18.8484 20.9658C18.3771 21.4029 18.044 21.7133 17.9757 21.7847C17.823 21.9424 17.667 22.0935 17.5175 22.2381C16.5912 23.1286 15.899 23.7981 17.5565 24.8901C18.3528 25.415 18.9897 25.8489 19.6251 26.2811C20.319 26.754 21.0113 27.2252 21.9083 27.8135C22.1357 27.963 22.3535 28.1174 22.5664 28.2685C23.374 28.8454 24.1004 29.3621 24.9974 29.2809C25.5174 29.2321 26.0569 28.743 26.3299 27.2821C26.975 23.8274 28.2458 16.3459 28.5399 13.2616C28.5578 13.0055 28.5469 12.7483 28.5074 12.4946C28.4837 12.2898 28.384 12.1013 28.2279 11.9665C27.9955 11.7764 27.6348 11.7358 27.4722 11.739C26.7394 11.752 25.6149 12.1436 20.1987 14.3959Z" fill="#FFFEFA"/>
</svg>
