<svg width="39" height="39" viewBox="0 0 39 39" fill="none" xmlns="http://www.w3.org/2000/svg">
<path fill-rule="evenodd" clip-rule="evenodd" d="M11.2852 1.105C13.1514 1.01909 13.7464 1 18.5 1C23.2536 1 23.8486 1.02068 25.7132 1.105C27.5777 1.18932 28.8505 1.48682 29.9641 1.91795C31.1302 2.35864 32.1882 3.0475 33.0632 3.93841C33.9541 4.81182 34.6414 5.86818 35.0805 7.03591C35.5132 8.14955 35.8091 9.42227 35.895 11.2836C35.9809 13.153 36 13.748 36 18.5C36 23.2536 35.9793 23.8486 35.895 25.7148C35.8107 27.5761 35.5132 28.8489 35.0805 29.9625C34.6414 31.1304 33.9529 32.1885 33.0632 33.0632C32.1882 33.9541 31.1302 34.6414 29.9641 35.0805C28.8505 35.5132 27.5777 35.8091 25.7164 35.895C23.8486 35.9809 23.2536 36 18.5 36C13.7464 36 13.1514 35.9793 11.2852 35.895C9.42386 35.8107 8.15114 35.5132 7.0375 35.0805C5.86965 34.6413 4.81153 33.9529 3.93682 33.0632C3.04651 32.1892 2.35755 31.1316 1.91795 29.9641C1.48682 28.8505 1.19091 27.5777 1.105 25.7164C1.01909 23.847 1 23.252 1 18.5C1 13.7464 1.02068 13.1514 1.105 11.2868C1.18932 9.42227 1.48682 8.14955 1.91795 7.03591C2.3582 5.86831 3.04769 4.81073 3.93841 3.93682C4.81188 3.04671 5.86893 2.35775 7.03591 1.91795C8.14955 1.48682 9.42227 1.19091 11.2836 1.105H11.2852ZM25.5716 4.255C23.7261 4.17068 23.1725 4.15318 18.5 4.15318C13.8275 4.15318 13.2739 4.17068 11.4284 4.255C9.72136 4.33295 8.79545 4.61773 8.17818 4.85795C7.36205 5.17614 6.77818 5.55318 6.16568 6.16568C5.58507 6.73054 5.13824 7.41818 4.85795 8.17818C4.61773 8.79545 4.33295 9.72136 4.255 11.4284C4.17068 13.2739 4.15318 13.8275 4.15318 18.5C4.15318 23.1725 4.17068 23.7261 4.255 25.5716C4.33295 27.2786 4.61773 28.2045 4.85795 28.8218C5.13795 29.5807 5.585 30.2695 6.16568 30.8343C6.73045 31.415 7.41932 31.862 8.17818 32.142C8.79545 32.3823 9.72136 32.667 11.4284 32.745C13.2739 32.8293 13.8259 32.8468 18.5 32.8468C23.1741 32.8468 23.7261 32.8293 25.5716 32.745C27.2786 32.667 28.2045 32.3823 28.8218 32.142C29.638 31.8239 30.2218 31.4468 30.8343 30.8343C31.415 30.2695 31.862 29.5807 32.142 28.8218C32.3823 28.2045 32.667 27.2786 32.745 25.5716C32.8293 23.7261 32.8468 23.1725 32.8468 18.5C32.8468 13.8275 32.8293 13.2739 32.745 11.4284C32.667 9.72136 32.3823 8.79545 32.142 8.17818C31.8239 7.36205 31.4468 6.77818 30.8343 6.16568C30.2694 5.58511 29.5818 5.13829 28.8218 4.85795C28.2045 4.61773 27.2786 4.33295 25.5716 4.255ZM16.2648 23.8948C17.5131 24.4144 18.9031 24.4845 20.1974 24.0932C21.4917 23.7018 22.6099 22.8733 23.3612 21.749C24.1125 20.6248 24.4501 19.2746 24.3164 17.929C24.1828 16.5835 23.5861 15.3261 22.6284 14.3716C22.0179 13.7614 21.2797 13.2942 20.4669 13.0036C19.6541 12.713 18.787 12.6063 17.9281 12.691C17.0691 12.7757 16.2396 13.0498 15.4992 13.4936C14.7589 13.9374 14.1262 14.5398 13.6466 15.2575C13.1671 15.9752 12.8526 16.7902 12.7258 17.644C12.5991 18.4978 12.6632 19.3691 12.9136 20.1951C13.164 21.0212 13.5944 21.7814 14.1739 22.4211C14.7533 23.0609 15.4674 23.5642 16.2648 23.8948ZM12.1395 12.1395C12.9748 11.3043 13.9664 10.6417 15.0577 10.1897C16.1491 9.73762 17.3188 9.50496 18.5 9.50496C19.6812 9.50496 20.8509 9.73762 21.9423 10.1897C23.0336 10.6417 24.0252 11.3043 24.8605 12.1395C25.6957 12.9748 26.3583 13.9664 26.8103 15.0577C27.2624 16.1491 27.495 17.3188 27.495 18.5C27.495 19.6812 27.2624 20.8509 26.8103 21.9423C26.3583 23.0336 25.6957 24.0252 24.8605 24.8605C23.1736 26.5474 20.8856 27.495 18.5 27.495C16.1144 27.495 13.8264 26.5474 12.1395 24.8605C10.4526 23.1736 9.50496 20.8856 9.50496 18.5C9.50496 16.1144 10.4526 13.8264 12.1395 12.1395ZM29.49 10.8445C29.697 10.6493 29.8627 10.4145 29.9773 10.154C30.0919 9.89361 30.1531 9.61281 30.1573 9.3283C30.1614 9.04378 30.1084 8.76133 30.0014 8.49765C29.8945 8.23398 29.7357 7.99445 29.5345 7.79324C29.3333 7.59204 29.0938 7.43325 28.8301 7.32628C28.5664 7.21931 28.2839 7.16633 27.9994 7.17047C27.7149 7.17462 27.4341 7.23581 27.1737 7.35043C26.9132 7.46504 26.6784 7.63074 26.4832 7.83773C26.1034 8.24027 25.8955 8.77497 25.9036 9.3283C25.9117 9.88163 26.1351 10.41 26.5264 10.8013C26.9177 11.1926 27.4461 11.416 27.9994 11.4241C28.5528 11.4322 29.0875 11.2243 29.49 10.8445Z" fill="#FFFEFA"/>
</svg>
