<svg width="53" height="53" viewBox="0 0 53 53" fill="none" xmlns="http://www.w3.org/2000/svg">
<g clip-path="url(#clip0_338_918)">
<path d="M26.6689 6.6217H26.9638C29.6866 6.63164 43.4832 6.73102 47.2031 7.73139C48.3277 8.0367 49.3524 8.6318 50.175 9.45723C50.9975 10.2827 51.589 11.3095 51.8903 12.4351C52.2249 13.6939 52.4601 15.3601 52.6191 17.0793L52.6522 17.4238L52.7251 18.285L52.7516 18.6295C52.9669 21.6571 52.9934 24.4926 52.9967 25.1121V25.3605C52.9934 26.0031 52.9636 29.0308 52.7251 32.1843L52.6986 32.5321L52.6687 32.8766C52.5031 34.7713 52.258 36.6528 51.8903 38.0375C51.5899 39.1635 50.9987 40.1909 50.176 41.0164C49.3534 41.842 48.3282 42.4368 47.2031 42.7412C43.3606 43.7747 28.7558 43.8476 26.7319 43.8509H26.2615C25.2379 43.8509 21.0046 43.831 16.5658 43.6786L16.0027 43.6588L15.7145 43.6455L15.1481 43.6223L14.5816 43.5991C10.9047 43.4368 7.40344 43.1751 5.79025 42.7379C4.66562 42.4338 3.64065 41.8395 2.81802 41.0145C1.9954 40.1896 1.40399 39.1629 1.10306 38.0375C0.735375 36.6561 0.49025 34.7713 0.324625 32.8766L0.298125 32.5288L0.271625 32.1843C0.108145 29.9397 0.0175558 27.6904 0 25.44L0 25.0326C0.006625 24.3204 0.033125 21.8592 0.212 19.143L0.235188 18.8018L0.245125 18.6295L0.271625 18.285L0.3445 17.4238L0.377625 17.0793C0.536625 15.3601 0.771812 13.6906 1.10637 12.4351C1.4068 11.309 1.99797 10.2817 2.82064 9.45615C3.6433 8.63058 4.66854 8.03578 5.79356 7.73139C7.40675 7.30077 10.9081 7.03577 14.5849 6.87014L15.1481 6.84695L15.7178 6.82708L16.0027 6.81714L16.5691 6.79395C19.7217 6.69251 22.8755 6.63619 26.0296 6.62502H26.6689V6.6217ZM21.2 17.2548V33.2145L34.9701 25.238L21.2 17.2548Z" fill="#FFFEFA"/>
</g>
<defs>
<clipPath id="clip0_338_918">
<rect width="53" height="53" fill="white"/>
</clipPath>
</defs>
</svg>
