<svg id="вектор" xmlns="http://www.w3.org/2000/svg" viewBox="0 0 226.73 222.06"><defs><style>.cls-1{font-size:25px;font-family:BookmanOldStyle-Bold, Bookman Old Style;font-weight:700;}.cls-1,.cls-2{fill:#181a30;}</style></defs><title>Logo_6</title><text class="cls-1" transform="translate(9.81 92.54) rotate(93.35)">O</text><text class="cls-1" transform="translate(8.88 114.55) rotate(82.36)">u</text><text class="cls-1" transform="translate(11.59 132.46) rotate(73.74)">r</text><text class="cls-1" transform="matrix(0.38, 0.92, -0.92, 0.38, 15.27, 144.56)"> </text><text class="cls-1" transform="translate(18.93 153.74) rotate(60.35)">b</text><text class="cls-1" transform="matrix(0.63, 0.77, -0.77, 0.63, 27.34, 168.33)">u</text><text class="cls-1" transform="matrix(0.75, 0.67, -0.67, 0.75, 39.06, 182.23)">s</text><text class="cls-1" transform="matrix(0.82, 0.57, -0.57, 0.82, 49.81, 191.58)">i</text><text class="cls-1" transform="matrix(0.89, 0.46, -0.46, 0.89, 58.32, 197.77)">n</text><text class="cls-1" transform="translate(75.2 206.12) rotate(17.41)">e</text><text class="cls-1" transform="translate(90.61 210.77) rotate(8.93)">s</text><text class="cls-1" transform="matrix(1, 0.02, -0.02, 1, 104.97, 212.92)">s</text><text class="cls-1" transform="translate(119.1 212.98) rotate(-5.41)"> </text><text class="cls-1" transform="translate(128.56 212.05) rotate(-10.77)">i</text><text class="cls-1" transform="translate(138.67 210.17) rotate(-17.55)">s</text><text class="cls-1" transform="translate(152.17 205.69) rotate(-24.18)"> </text><text class="cls-1" transform="matrix(0.87, -0.49, 0.49, 0.87, 160.81, 201.76)">l</text><text class="cls-1" transform="translate(169.07 197.06) rotate(-34.75)">i</text><text class="cls-1" transform="translate(177.31 191.3) rotate(-40.39)">f</text><text class="cls-1" transform="translate(185.64 184.3) rotate(-47.68)">e</text><text class="cls-1" transform="translate(196.09 172.44) rotate(-54.68)"> </text><text class="cls-1" transform="translate(201.55 164.67) rotate(-60.03)">i</text><text class="cls-1" transform="translate(206.64 155.85) rotate(-66.32)">t</text><text class="cls-1" transform="translate(211.79 143.99) rotate(-73.88)">s</text><text class="cls-1" transform="translate(215.78 129.95) rotate(-82.34)">e</text><text class="cls-1" transform="translate(217.61 114.17) rotate(-89.07)">l</text><text class="cls-1" transform="translate(217.72 104.81) rotate(-94.69)">f</text><text class="cls-1" transform="translate(74.1 30.02) rotate(-20.95)">U</text><text class="cls-1" transform="translate(90.62 23.61) rotate(-9.27)">N</text><text class="cls-1" transform="translate(108.24 21.06) rotate(-0.93)">I</text><text class="cls-1" transform="matrix(0.99, 0.15, -0.15, 0.99, 117.65, 20.49)">O</text><text class="cls-1" transform="matrix(0.93, 0.36, -0.36, 0.93, 136.6, 23.45)">N</text><path class="cls-2" d="M53.71,55.43v78.2h0C54.07,165.35,80.39,191,112.83,191s58.75-25.62,59.1-57.34h0V55.43ZM168,133h0c-.32,29.83-24.87,53.92-55.13,53.92S58.05,162.81,57.73,133h0V59.44H168Z" transform="translate(0.43 -4.77)"/><rect class="cls-2" x="111.25" y="169.97" width="4.09" height="12.77"/><rect class="cls-2" x="61.54" y="147.22" width="24.68" height="4.01"/><rect class="cls-2" x="73.52" y="150.5" width="4.04" height="6.04"/><rect class="cls-2" x="139.87" y="147.21" width="24.94" height="4.02"/><rect class="cls-2" x="148.28" y="150.95" width="4.06" height="5.59"/><polygon class="cls-2" points="74.89 167.29 91.36 158.64 93.63 161.99 78.17 170.12 74.89 167.29"/><polygon class="cls-2" points="99.93 167.1 97.3 171.62 100.74 173.63 103.62 168.78 99.93 167.1"/><polygon class="cls-2" points="122.97 168.65 125.87 173.64 129.35 171.61 126.6 166.9 122.97 168.65"/><polygon class="cls-2" points="133.3 162.18 148.47 170.18 151.46 167.23 135.88 159.01 133.3 162.18"/><path class="cls-2" d="M125.09,130,123,133.51a16.27,16.27,0,1,1-20.42.35l-2.19-3.48a20.3,20.3,0,1,0,24.7-.34Z" transform="translate(0.43 -4.77)"/><path class="cls-2" d="M131.5,124.15l-3.32,2.51a24.93,24.93,0,1,1-30.64,0l-2.92-2.82a29,29,0,1,0,36.88.29Z" transform="translate(0.43 -4.77)"/><polygon class="cls-2" points="111.41 157.81 111.34 120.12 108.31 123.31 105.41 120.52 111.36 114.31 111.3 72.7 102.29 60.91 105.46 58.47 113.31 68.74 121.18 58.48 124.36 60.9 115.3 72.71 115.35 114.22 121.4 120.52 118.53 123.29 115.37 120.01 115.41 158.07 111.41 157.81"/><path class="cls-2" d="M102.35,158.72V141.59a23,23,0,0,0-.07-2.9c-.15-1.48-1.07-4.11-3.72-8a14.28,14.28,0,0,0-7-5.63,32.83,32.83,0,0,0-4.85-1.37L80.16,131l-3-2.69,4.35-4.82s-1.77.1-2.52.18-2.78.24-3.67.35l-2.88.32-3.08.41-.56-4s2.66-.32,5.43-.62,4.61-.53,7.29-.61a28.62,28.62,0,0,1,8,.68,20.58,20.58,0,0,1,7.75,3.64,20.92,20.92,0,0,1,5.81,6.63,18.74,18.74,0,0,1,2.85,6.11,41.07,41.07,0,0,1,.38,6.68v19.3l-3.86-1.62Z" transform="translate(0.43 -4.77)"/><path class="cls-2" d="M123.46,159.3V141.36a14.31,14.31,0,0,1,.7-5.58,19.85,19.85,0,0,1,4-6.61,20.92,20.92,0,0,1,6.41-4.21,19.2,19.2,0,0,1,4-1.17l8.39,7.32,2.69-3-5.39-4.73a35.48,35.48,0,0,1,5.09.28c4,.38,8.16,1.12,8.16,1.12l.77-4s-4.25-.76-8.27-1.13a54.25,54.25,0,0,0-8.79-.29,25.63,25.63,0,0,0-8.72,2.06,24.73,24.73,0,0,0-7.73,5.47,23.23,23.23,0,0,0-4.23,7.21,20.79,20.79,0,0,0-1.06,5.81V161.7l3.27-1.13Z" transform="translate(0.43 -4.77)"/><path class="cls-2" d="M64.91,111.74l.45,4s6.59-.63,10.9-.93a68.7,68.7,0,0,1,11.07-.2,33.2,33.2,0,0,1,8.51,2,26.54,26.54,0,0,1,3.2,1.52,5.43,5.43,0,0,0,2.62,1.07c1,0,2-.28,2.33-1.07a7.28,7.28,0,0,0,.33-3.51,28.42,28.42,0,0,0-1-4.82,21.32,21.32,0,0,0-1.26-3.07c-.49-.93-1.92-3-2.28-3.6a23,23,0,0,0-1.9-2.45l-3,2.66a6.5,6.5,0,0,1,.54.65c.26.36.45.59,1,1.32s1.24,1.82,1.65,2.53a15.41,15.41,0,0,1,1.21,2.45,10.81,10.81,0,0,1,.57,2.29,5.75,5.75,0,0,1,.09,1.37c-.07.1-.63-.22-1.39-.55s-2.41-1-3.21-1.22-2.15-.62-3-.8-2.23-.44-3.17-.57-2.87-.31-3.68-.34-2.38,0-3.34,0-2.14.09-3,.14-2.4.13-3.31.19l-3.46.27-4.15.38Z" transform="translate(0.43 -4.77)"/><path class="cls-2" d="M128.38,100.6a17.48,17.48,0,0,0-2.4,2.51,24.53,24.53,0,0,0-3,5.51,28.2,28.2,0,0,0-1.51,4.95,5.8,5.8,0,0,0,.49,4.26,2.42,2.42,0,0,0,2.19,1,8.46,8.46,0,0,0,4-1.19,21.23,21.23,0,0,1,6.27-2.51,29.43,29.43,0,0,1,7.09-1c3.43-.06,6,.08,8.35.26s5.61.48,7.37.7,3.3.48,3.3.48l.62-4s-3.7-.54-6.81-.83-6.8-.66-9.77-.64a49.76,49.76,0,0,0-9.64.73,47.89,47.89,0,0,0-8.36,2.83c-.27.05-.33.08-.52,0s-.21-1-.08-1.39a17.37,17.37,0,0,1,1.74-4.37,19,19,0,0,1,2.33-3.38,8.55,8.55,0,0,1,1-1Z" transform="translate(0.43 -4.77)"/><path class="cls-2" d="M110.93,113.39s-.62-7.84-2-10.79c-1.66-3.58-8.3-9.88-8.3-9.88l-15.58.64L78.6,105.23l-3.54-1.91,5.33-9.77-7.52.27-.15-4,24.18-.89-13.46-13,2.75-3L98,84.34l1.51-7.1,3.87.8-2,9.7s4.29,4.38,6.19,6.5c2.25,2.51,3.88,4.7,3.88,4.7Z" transform="translate(0.43 -4.77)"/><path class="cls-2" d="M114.92,113.21a33.5,33.5,0,0,1,2.19-9.51c2.33-5.49,8.61-11.17,8.61-11.17l16.13.8,6.41,11.87,3.54-1.91-5.3-9.77,6.95.31.2-4-24.13-1.07,8.25-7.82,5.43-5-2.69-3-6,5.55-6.3,5.84-1.41-7.09-3.92.8,1.91,9.67-5.57,5.79a38.23,38.23,0,0,0-5,6.58Z" transform="translate(0.43 -4.77)"/><path class="cls-2" d="M156.37,33.16a91.15,91.15,0,0,1,45.8,60.21l4.31-1a95.37,95.37,0,0,0-48-63Z" transform="translate(0.43 -4.77)"/><path class="cls-2" d="M24.51,93.79A91.14,91.14,0,0,1,69.58,33.61L67.69,30a95.36,95.36,0,0,0-47,62.87Z" transform="translate(0.43 -4.77)"/><path class="cls-2" d="M159.09,27.6A97,97,0,0,1,207.91,92l4.48-1a101.65,101.65,0,0,0-51.22-67.12Z" transform="translate(0.43 -4.77)"/><path class="cls-2" d="M18.69,92.46A97,97,0,0,1,66.45,28.24l-2-3.77A101.6,101.6,0,0,0,14.35,91.4Z" transform="translate(0.43 -4.77)"/></svg>