<svg width="182" height="72" viewBox="0 0 182 72" fill="none" xmlns="http://www.w3.org/2000/svg">
<path d="M71.7476 25.7837H79.7613V27.0474H79.226C78.5718 27.0474 78.106 27.1119 77.8285 27.2407C77.6104 27.3398 77.4469 27.5083 77.3378 27.7462C77.2288 27.9841 77.1743 28.4599 77.1743 29.1735V38.5104C77.1743 40.1756 77.3725 41.4096 77.769 42.2125C78.1754 43.0153 78.8444 43.6893 79.7761 44.2345C80.7177 44.7796 81.7486 45.0522 82.8686 45.0522C83.9986 45.0522 85.069 44.7598 86.08 44.175C87.091 43.5902 87.7997 42.8964 88.2061 42.0935C88.6125 41.2907 88.8157 40.022 88.8157 38.2874V29.3073C88.8157 28.6531 88.7513 28.1823 88.6224 27.8949C88.4936 27.6074 88.2953 27.3943 88.0277 27.2556C87.77 27.1168 87.3636 27.0474 86.8085 27.0474H86.2287V25.7837H93.1719V27.0474H92.6962C91.9131 27.0474 91.3729 27.1961 91.0756 27.4935C90.7881 27.7908 90.6444 28.3508 90.6444 29.1735V38.7334C90.6444 40.4779 90.3173 41.9349 89.6631 43.1045C89.009 44.2642 88.0574 45.186 86.8085 45.8699C85.5597 46.5439 84.1076 46.8809 82.4523 46.8809C80.8862 46.8809 79.454 46.534 78.1555 45.8402C76.8571 45.1464 75.9006 44.284 75.2861 43.2532C74.6815 42.2125 74.3792 40.9091 74.3792 39.343V29.1735C74.3792 28.5193 74.3197 28.0634 74.2007 27.8057C74.0818 27.5381 73.9083 27.3448 73.6804 27.2258C73.4524 27.1069 73.0559 27.0474 72.491 27.0474H71.7476V25.7837ZM95.6548 25.7837H102.018L111.459 41.3353V29.5006C111.459 28.7969 111.39 28.2914 111.251 27.9841C111.112 27.6768 110.904 27.4439 110.627 27.2853C110.349 27.1267 109.938 27.0474 109.393 27.0474H108.857V25.7837H115.801V27.0474H115.429C114.814 27.0474 114.398 27.097 114.18 27.1961C113.873 27.3349 113.64 27.5876 113.481 27.9544C113.333 28.3211 113.258 28.8365 113.258 29.5006V46.5241H111.459L100.085 27.8354V42.6436C100.085 43.4663 100.11 43.9669 100.16 44.1453C100.229 44.3732 100.353 44.5814 100.531 44.7697C100.72 44.958 100.938 45.0869 101.186 45.1563C101.433 45.2257 101.934 45.2653 102.687 45.2752V46.5241H95.6548V45.2752H96.0265C96.7402 45.2752 97.2209 45.2058 97.4687 45.0671C97.7264 44.9283 97.9246 44.6904 98.0634 44.3534C98.2022 44.0164 98.2715 43.4465 98.2715 42.6436V29.5006C98.2715 28.6779 98.2517 28.1774 98.2121 27.999C98.1229 27.662 97.9494 27.4191 97.6917 27.2704C97.4439 27.1218 96.9434 27.0474 96.1901 27.0474H95.6548V25.7837ZM118.09 25.7837H126.03V27.0474H125.42C124.845 27.0474 124.429 27.1267 124.171 27.2853C123.913 27.4439 123.725 27.6719 123.606 27.9692C123.487 28.2567 123.428 28.8216 123.428 29.6641V43.0302C123.428 43.7042 123.492 44.1849 123.621 44.4724C123.75 44.7499 123.928 44.9531 124.156 45.0819C124.394 45.2108 124.815 45.2752 125.42 45.2752H126.03V46.5241H118.09V45.2752H118.744C119.329 45.2752 119.74 45.2108 119.978 45.0819C120.226 44.9432 120.405 44.7499 120.514 44.5021C120.623 44.2444 120.677 43.7538 120.677 43.0302V29.3519C120.677 28.5887 120.623 28.0783 120.514 27.8205C120.405 27.5529 120.226 27.3596 119.978 27.2407C119.74 27.1119 119.329 27.0474 118.744 27.0474H118.09V25.7837ZM139.708 25.4268C141.601 25.4268 143.311 25.8828 144.837 26.7947C146.492 27.7759 147.761 29.0496 148.643 30.6157C149.535 32.1817 149.981 33.9956 149.981 36.0573C149.981 39.2489 148.99 41.8507 147.008 43.8628C145.025 45.8749 142.498 46.8809 139.425 46.8809C135.996 46.8809 133.28 45.6717 131.278 43.2532C129.642 41.2808 128.825 38.9218 128.825 36.1762C128.825 34.1344 129.286 32.3056 130.207 30.69C131.129 29.0645 132.438 27.7809 134.132 26.8393C135.827 25.8977 137.686 25.4268 139.708 25.4268ZM139.708 27.0326C138.162 27.0326 136.833 27.3894 135.723 28.103C134.613 28.8068 133.721 29.8475 133.047 31.2253C132.383 32.603 132.051 34.3029 132.051 36.3249C132.051 38.2577 132.378 39.8981 133.032 41.2461C133.696 42.5842 134.583 43.61 135.694 44.3237C136.804 45.0373 138.053 45.3942 139.44 45.3942C140.818 45.3942 142.037 45.0473 143.098 44.3534C144.158 43.6497 145.035 42.5495 145.729 41.0528C146.423 39.5462 146.77 37.8761 146.77 36.0424C146.77 34.179 146.423 32.4741 145.729 30.9279C145.135 29.5997 144.347 28.6184 143.365 27.9841C142.384 27.3497 141.165 27.0326 139.708 27.0326ZM152.895 25.7837H159.259L168.7 41.3353V29.5006C168.7 28.7969 168.63 28.2914 168.492 27.9841C168.353 27.6768 168.145 27.4439 167.867 27.2853C167.59 27.1267 167.178 27.0474 166.633 27.0474H166.098V25.7837H173.041V27.0474H172.669C172.055 27.0474 171.639 27.097 171.421 27.1961C171.113 27.3349 170.88 27.5876 170.722 27.9544C170.573 28.3211 170.499 28.8365 170.499 29.5006V46.5241H168.7L157.326 27.8354V42.6436C157.326 43.4663 157.351 43.9669 157.4 44.1453C157.47 44.3732 157.594 44.5814 157.772 44.7697C157.96 44.958 158.178 45.0869 158.426 45.1563C158.674 45.2257 159.175 45.2653 159.928 45.2752V46.5241H152.895V45.2752H153.267C153.981 45.2752 154.462 45.2058 154.709 45.0671C154.967 44.9283 155.165 44.6904 155.304 44.3534C155.443 44.0164 155.512 43.4465 155.512 42.6436V29.5006C155.512 28.6779 155.492 28.1774 155.453 27.999C155.363 27.662 155.19 27.4191 154.932 27.2704C154.685 27.1218 154.184 27.0474 153.431 27.0474H152.895V25.7837Z" fill="#F5F6F4"/>
<path d="M76.9204 52.9693C77.4309 52.9693 77.892 53.0922 78.3036 53.3382C78.75 53.6028 79.0921 53.9462 79.33 54.3685C79.5705 54.7908 79.6908 55.28 79.6908 55.8359C79.6908 56.6966 79.4235 57.3982 78.889 57.9408C78.3544 58.4834 77.6728 58.7547 76.8442 58.7547C75.9194 58.7547 75.1871 58.4286 74.6472 57.7764C74.2061 57.2445 73.9856 56.6084 73.9856 55.868C73.9856 55.3174 74.1099 54.8243 74.3585 54.3886C74.6071 53.9502 74.9599 53.6041 75.4169 53.3502C75.874 53.0963 76.3752 52.9693 76.9204 52.9693ZM76.9204 53.4023C76.5035 53.4023 76.1453 53.4985 75.8459 53.691C75.5466 53.8807 75.306 54.1614 75.1243 54.5329C74.9452 54.9044 74.8556 55.3628 74.8556 55.9081C74.8556 56.4293 74.9438 56.8717 75.1203 57.2352C75.2993 57.596 75.5386 57.8726 75.8379 58.0651C76.1373 58.2575 76.474 58.3537 76.8482 58.3537C77.2198 58.3537 77.5485 58.2602 77.8345 58.0731C78.1205 57.8833 78.3571 57.5866 78.5442 57.183C78.7313 56.7768 78.8248 56.3264 78.8248 55.8319C78.8248 55.3294 78.7313 54.8697 78.5442 54.4527C78.3838 54.0946 78.1713 53.83 77.9067 53.6589C77.6421 53.4878 77.3133 53.4023 76.9204 53.4023ZM80.204 54.7895L81.7235 54.7294V57.3113C81.7235 57.5385 81.7543 57.7189 81.8157 57.8526C81.8799 57.9862 81.9761 58.0905 82.1044 58.1653C82.2354 58.2375 82.3877 58.2736 82.5615 58.2736C82.7753 58.2736 83.0172 58.2161 83.2871 58.1012C83.5598 57.9862 83.8311 57.8152 84.101 57.588V55.7197C84.101 55.5219 84.0863 55.3922 84.0569 55.3308C84.0275 55.2693 83.9754 55.2198 83.9005 55.1824C83.8257 55.145 83.7081 55.1263 83.5477 55.1263H83.2551V54.7895L84.7746 54.7294V57.7203C84.7746 57.9127 84.7906 58.0464 84.8227 58.1212C84.8548 58.1934 84.9015 58.2455 84.963 58.2776C85.0272 58.307 85.1541 58.3217 85.3439 58.3217H85.4682V58.6584L84.1371 58.7266V57.9849C83.7709 58.2762 83.4515 58.478 83.1789 58.5903C82.9062 58.6999 82.6296 58.7547 82.349 58.7547C82.1405 58.7547 81.9587 58.7266 81.8037 58.6705C81.6513 58.6143 81.5164 58.5302 81.3988 58.4179C81.2838 58.3056 81.1956 58.1707 81.1342 58.013C81.0727 57.8553 81.0419 57.6869 81.0419 57.5078V55.6836C81.0419 55.5205 81.0272 55.4069 80.9978 55.3428C80.9684 55.276 80.919 55.2238 80.8495 55.1864C80.7827 55.1463 80.6905 55.1263 80.5729 55.1263H80.204V54.7895ZM86.0014 55.3628V55.0341C86.1965 55.018 86.3703 54.986 86.5226 54.9378C86.675 54.8871 86.8487 54.8055 87.0438 54.6933H87.3445V55.451C87.5343 55.2185 87.7548 55.0341 88.006 54.8978C88.2573 54.7614 88.4831 54.6933 88.6836 54.6933C88.8814 54.6933 89.0378 54.7401 89.1527 54.8336C89.2676 54.9272 89.3251 55.0408 89.3251 55.1744C89.3251 55.2706 89.2863 55.3561 89.2088 55.431C89.134 55.5032 89.0431 55.5392 88.9362 55.5392C88.8881 55.5392 88.8466 55.5326 88.8119 55.5192C88.7772 55.5058 88.7264 55.4764 88.6595 55.431C88.5125 55.3348 88.3896 55.2867 88.2907 55.2867C88.1571 55.2867 88.01 55.3428 87.8497 55.455C87.6465 55.5994 87.4875 55.741 87.3726 55.88V57.7283C87.3726 57.8887 87.3806 57.9983 87.3966 58.0571C87.4153 58.1132 87.4447 58.1626 87.4848 58.2054C87.5249 58.2455 87.5744 58.2749 87.6332 58.2936C87.692 58.3123 87.7949 58.3217 87.9419 58.3217H88.0742V58.6584H86.0014V58.3217H86.1738C86.3368 58.3217 86.4438 58.307 86.4945 58.2776C86.564 58.2375 86.6148 58.1827 86.6469 58.1132C86.6816 58.041 86.699 57.9127 86.699 57.7283V55.3628H86.0014ZM92.1877 53.4464V53.1136C92.3641 53.1003 92.5338 53.0682 92.6969 53.0174C92.8626 52.9666 93.047 52.8864 93.2502 52.7769H93.5428V55.2225C93.778 55.0461 94.0199 54.9138 94.2685 54.8256C94.5171 54.7374 94.771 54.6933 95.0303 54.6933C95.3296 54.6933 95.6063 54.7735 95.8602 54.9338C96.1141 55.0942 96.3132 55.3214 96.4576 55.6154C96.6046 55.9068 96.6781 56.2516 96.6781 56.6498C96.6781 57.2753 96.495 57.7898 96.1288 58.1934C95.7894 58.5676 95.359 58.7547 94.8378 58.7547C94.5251 58.7547 94.2458 58.6892 93.9999 58.5582C93.8181 58.462 93.6417 58.3137 93.4707 58.1132L93.2502 58.6584H92.8773V53.4464H92.1877ZM93.5428 55.6194V57.163C93.5428 57.4062 93.5602 57.5773 93.595 57.6762C93.6297 57.7724 93.7005 57.8726 93.8074 57.9769C93.917 58.0784 94.044 58.16 94.1883 58.2214C94.3353 58.2802 94.4863 58.3096 94.6414 58.3096C94.8793 58.3096 95.0958 58.2468 95.2909 58.1212C95.486 57.9956 95.6397 57.8098 95.7519 57.5639C95.8642 57.318 95.9203 57.0227 95.9203 56.6779C95.9203 56.1941 95.8014 55.8065 95.5635 55.5152C95.3737 55.2746 95.1078 55.1543 94.7657 55.1543C94.5892 55.1543 94.4102 55.1878 94.2284 55.2546C94.0467 55.3187 93.8181 55.4403 93.5428 55.6194ZM97.1311 54.7895L98.6506 54.7294V57.3113C98.6506 57.5385 98.6814 57.7189 98.7428 57.8526C98.807 57.9862 98.9032 58.0905 99.0315 58.1653C99.1625 58.2375 99.3148 58.2736 99.4886 58.2736C99.7024 58.2736 99.9443 58.2161 100.214 58.1012C100.487 57.9862 100.758 57.8152 101.028 57.588V55.7197C101.028 55.5219 101.013 55.3922 100.984 55.3308C100.955 55.2693 100.903 55.2198 100.828 55.1824C100.753 55.145 100.635 55.1263 100.475 55.1263H100.182V54.7895L101.702 54.7294V57.7203C101.702 57.9127 101.718 58.0464 101.75 58.1212C101.782 58.1934 101.829 58.2455 101.89 58.2776C101.954 58.307 102.081 58.3217 102.271 58.3217H102.395V58.6584L101.064 58.7266V57.9849C100.698 58.2762 100.379 58.478 100.106 58.5903C99.8334 58.6999 99.5567 58.7547 99.2761 58.7547C99.0676 58.7547 98.8858 58.7266 98.7308 58.6705C98.5785 58.6143 98.4435 58.5302 98.3259 58.4179C98.211 58.3056 98.1227 58.1707 98.0613 58.013C97.9998 57.8553 97.9691 57.6869 97.9691 57.5078V55.6836C97.9691 55.5205 97.9544 55.4069 97.925 55.3428C97.8956 55.276 97.8461 55.2238 97.7766 55.1864C97.7098 55.1463 97.6176 55.1263 97.5 55.1263H97.1311V54.7895ZM105.651 54.7895H105.931L106.292 56.0163L105.931 56.1366C105.787 55.8079 105.584 55.5499 105.322 55.3628C105.063 55.1731 104.8 55.0782 104.532 55.0782C104.326 55.0782 104.159 55.129 104.031 55.2305C103.903 55.3294 103.839 55.4444 103.839 55.5753C103.839 55.6983 103.885 55.8038 103.979 55.8921C104.07 55.9829 104.274 56.0858 104.592 56.2008L105.374 56.4774C105.815 56.6351 106.116 56.8035 106.276 56.9826C106.434 57.1643 106.513 57.3701 106.513 57.6C106.513 57.7951 106.454 57.9836 106.336 58.1653C106.219 58.3444 106.048 58.4874 105.823 58.5943C105.601 58.7012 105.346 58.7547 105.057 58.7547C104.608 58.7547 104.224 58.6264 103.903 58.3698L103.819 58.6584H103.534L103.033 57.3474L103.398 57.2031C103.641 57.588 103.871 57.8606 104.087 58.021C104.389 58.2482 104.715 58.3618 105.065 58.3618C105.298 58.3618 105.489 58.3003 105.639 58.1773C105.788 58.0517 105.863 57.9127 105.863 57.7604C105.863 57.6347 105.817 57.5198 105.723 57.4156C105.627 57.314 105.442 57.2151 105.17 57.1189L104.244 56.7821C103.845 56.6378 103.569 56.4801 103.414 56.309C103.259 56.138 103.181 55.9415 103.181 55.7197C103.181 55.4497 103.307 55.2118 103.558 55.006C103.812 54.7975 104.134 54.6933 104.524 54.6933C104.727 54.6933 104.909 54.72 105.069 54.7735C105.23 54.8243 105.388 54.9098 105.543 55.0301L105.651 54.7895ZM108.201 52.8851C108.329 52.8851 108.439 52.9305 108.529 53.0214C108.62 53.1096 108.666 53.2179 108.666 53.3462C108.666 53.4745 108.62 53.5841 108.529 53.6749C108.439 53.7658 108.329 53.8112 108.201 53.8112C108.072 53.8112 107.963 53.7658 107.872 53.6749C107.781 53.5841 107.736 53.4745 107.736 53.3462C107.736 53.2179 107.781 53.1096 107.872 53.0214C107.963 52.9305 108.072 52.8851 108.201 52.8851ZM107.178 55.3668V55.0341C107.4 55.0073 107.586 54.9699 107.736 54.9218C107.888 54.8737 108.06 54.7975 108.253 54.6933H108.546V57.9087C108.546 58.021 108.562 58.1052 108.594 58.1613C108.626 58.2174 108.67 58.2589 108.726 58.2856C108.785 58.3096 108.89 58.3217 109.043 58.3217H109.231V58.6584H107.178V58.3217H107.343C107.522 58.3217 107.642 58.3056 107.704 58.2736C107.765 58.2415 107.808 58.196 107.832 58.1372C107.859 58.0784 107.872 57.9408 107.872 57.7243V55.3668H107.178ZM109.676 55.3668V55.0301C109.914 55.0033 110.092 54.9713 110.209 54.9338C110.327 54.8964 110.497 54.8162 110.719 54.6933H111.007V55.455C111.36 55.1584 111.661 54.9579 111.909 54.8537C112.161 54.7467 112.414 54.6933 112.671 54.6933C112.89 54.6933 113.084 54.7307 113.252 54.8055C113.421 54.8777 113.557 54.9766 113.661 55.1022C113.768 55.2279 113.839 55.3708 113.874 55.5312C113.895 55.6301 113.906 55.7798 113.906 55.9803V57.7443C113.906 57.9555 113.921 58.0918 113.95 58.1533C113.982 58.2121 114.032 58.2548 114.098 58.2816C114.165 58.3083 114.33 58.3217 114.591 58.3217V58.6584H112.527V58.3217H112.639C112.831 58.3217 112.962 58.3043 113.032 58.2695C113.101 58.2348 113.151 58.184 113.18 58.1172C113.212 58.0504 113.228 57.9141 113.228 57.7083V56.2328C113.228 55.9281 113.203 55.717 113.152 55.5994C113.104 55.4818 113.02 55.3869 112.9 55.3147C112.782 55.2399 112.632 55.2025 112.451 55.2025C112.234 55.2025 112.003 55.2586 111.757 55.3708C111.511 55.4804 111.273 55.6435 111.043 55.86V57.7083C111.043 57.9167 111.058 58.0557 111.087 58.1252C111.119 58.1947 111.17 58.2468 111.24 58.2816C111.288 58.3083 111.416 58.3217 111.625 58.3217H111.741V58.6584H109.676V58.3217H109.776C109.974 58.3217 110.109 58.3056 110.181 58.2736C110.253 58.2388 110.304 58.1787 110.334 58.0931C110.35 58.0504 110.358 57.9034 110.358 57.6521V55.3668H109.676ZM118.525 57.6241L118.781 57.8325C118.586 58.0651 118.396 58.2495 118.212 58.3858C118.03 58.5221 117.858 58.617 117.695 58.6705C117.532 58.7266 117.34 58.7547 117.121 58.7547C116.728 58.7547 116.394 58.6745 116.119 58.5141C115.804 58.3297 115.562 58.0891 115.393 57.7924C115.225 57.4958 115.141 57.1456 115.141 56.742C115.141 56.3197 115.222 55.9589 115.385 55.6595C115.548 55.3602 115.776 55.1249 116.067 54.9539C116.361 54.7802 116.7 54.6933 117.085 54.6933C117.371 54.6933 117.62 54.7387 117.831 54.8296C118.042 54.9178 118.221 55.0528 118.368 55.2345C118.515 55.4136 118.622 55.6194 118.689 55.852C118.726 55.9883 118.748 56.1647 118.753 56.3812H115.919C115.911 56.5122 115.907 56.6097 115.907 56.6739C115.907 57.0106 115.965 57.3113 116.083 57.5759C116.201 57.8379 116.356 58.0317 116.548 58.1573C116.743 58.2802 116.964 58.3417 117.21 58.3417C117.418 58.3417 117.62 58.2936 117.815 58.1974C118.01 58.0985 118.247 57.9074 118.525 57.6241ZM118.011 56.0043C117.971 55.7584 117.914 55.5767 117.839 55.4591C117.767 55.3414 117.663 55.2479 117.526 55.1784C117.393 55.1089 117.242 55.0742 117.073 55.0742C116.905 55.0742 116.747 55.1089 116.6 55.1784C116.453 55.2479 116.33 55.3441 116.231 55.4671C116.135 55.59 116.051 55.7691 115.979 56.0043H118.011ZM122.081 54.7895H122.361L122.722 56.0163L122.361 56.1366C122.217 55.8079 122.014 55.5499 121.752 55.3628C121.493 55.1731 121.229 55.0782 120.962 55.0782C120.756 55.0782 120.589 55.129 120.461 55.2305C120.333 55.3294 120.269 55.4444 120.269 55.5753C120.269 55.6983 120.315 55.8038 120.409 55.8921C120.5 55.9829 120.704 56.0858 121.022 56.2008L121.804 56.4774C122.245 56.6351 122.546 56.8035 122.706 56.9826C122.864 57.1643 122.943 57.3701 122.943 57.6C122.943 57.7951 122.884 57.9836 122.766 58.1653C122.649 58.3444 122.478 58.4874 122.253 58.5943C122.031 58.7012 121.776 58.7547 121.487 58.7547C121.038 58.7547 120.653 58.6264 120.333 58.3698L120.249 58.6584H119.964L119.463 57.3474L119.828 57.2031C120.071 57.588 120.301 57.8606 120.517 58.021C120.819 58.2482 121.145 58.3618 121.495 58.3618C121.728 58.3618 121.919 58.3003 122.069 58.1773C122.218 58.0517 122.293 57.9127 122.293 57.7604C122.293 57.6347 122.247 57.5198 122.153 57.4156C122.057 57.314 121.872 57.2151 121.6 57.1189L120.674 56.7821C120.275 56.6378 119.999 56.4801 119.844 56.309C119.689 56.138 119.611 55.9415 119.611 55.7197C119.611 55.4497 119.737 55.2118 119.988 55.006C120.242 54.7975 120.564 54.6933 120.954 54.6933C121.157 54.6933 121.339 54.72 121.499 54.7735C121.66 54.8243 121.818 54.9098 121.973 55.0301L122.081 54.7895ZM126.355 54.7895H126.635L126.996 56.0163L126.635 56.1366C126.491 55.8079 126.288 55.5499 126.026 55.3628C125.767 55.1731 125.503 55.0782 125.236 55.0782C125.03 55.0782 124.863 55.129 124.735 55.2305C124.607 55.3294 124.542 55.4444 124.542 55.5753C124.542 55.6983 124.589 55.8038 124.683 55.8921C124.774 55.9829 124.978 56.0858 125.296 56.2008L126.078 56.4774C126.519 56.6351 126.82 56.8035 126.98 56.9826C127.138 57.1643 127.217 57.3701 127.217 57.6C127.217 57.7951 127.158 57.9836 127.04 58.1653C126.923 58.3444 126.752 58.4874 126.527 58.5943C126.305 58.7012 126.05 58.7547 125.761 58.7547C125.312 58.7547 124.927 58.6264 124.607 58.3698L124.522 58.6584H124.238L123.737 57.3474L124.101 57.2031C124.345 57.588 124.575 57.8606 124.791 58.021C125.093 58.2482 125.419 58.3618 125.769 58.3618C126.002 58.3618 126.193 58.3003 126.343 58.1773C126.492 58.0517 126.567 57.9127 126.567 57.7604C126.567 57.6347 126.52 57.5198 126.427 57.4156C126.331 57.314 126.146 57.2151 125.874 57.1189L124.947 56.7821C124.549 56.6378 124.273 56.4801 124.117 56.309C123.962 56.138 123.885 55.9415 123.885 55.7197C123.885 55.4497 124.011 55.2118 124.262 55.006C124.516 54.7975 124.838 54.6933 125.228 54.6933C125.431 54.6933 125.613 54.72 125.773 54.7735C125.934 54.8243 126.091 54.9098 126.246 55.0301L126.355 54.7895ZM131.535 52.8851C131.663 52.8851 131.773 52.9305 131.863 53.0214C131.954 53.1096 132 53.2179 132 53.3462C132 53.4745 131.954 53.5841 131.863 53.6749C131.773 53.7658 131.663 53.8112 131.535 53.8112C131.406 53.8112 131.297 53.7658 131.206 53.6749C131.115 53.5841 131.07 53.4745 131.07 53.3462C131.07 53.2179 131.115 53.1096 131.206 53.0214C131.297 52.9305 131.406 52.8851 131.535 52.8851ZM130.512 55.3668V55.0341C130.734 55.0073 130.92 54.9699 131.07 54.9218C131.222 54.8737 131.394 54.7975 131.587 54.6933H131.879V57.9087C131.879 58.021 131.895 58.1052 131.928 58.1613C131.96 58.2174 132.004 58.2589 132.06 58.2856C132.119 58.3096 132.224 58.3217 132.377 58.3217H132.565V58.6584H130.512V58.3217H130.677C130.856 58.3217 130.976 58.3056 131.037 58.2736C131.099 58.2415 131.142 58.196 131.166 58.1372C131.193 58.0784 131.206 57.9408 131.206 57.7243V55.3668H130.512ZM135.72 54.7895H136.001L136.362 56.0163L136.001 56.1366C135.857 55.8079 135.653 55.5499 135.392 55.3628C135.132 55.1731 134.869 55.0782 134.602 55.0782C134.396 55.0782 134.229 55.129 134.101 55.2305C133.972 55.3294 133.908 55.4444 133.908 55.5753C133.908 55.6983 133.955 55.8038 134.048 55.8921C134.139 55.9829 134.344 56.0858 134.662 56.2008L135.444 56.4774C135.885 56.6351 136.185 56.8035 136.346 56.9826C136.503 57.1643 136.582 57.3701 136.582 57.6C136.582 57.7951 136.523 57.9836 136.406 58.1653C136.288 58.3444 136.117 58.4874 135.893 58.5943C135.671 58.7012 135.416 58.7547 135.127 58.7547C134.678 58.7547 134.293 58.6264 133.972 58.3698L133.888 58.6584H133.603L133.102 57.3474L133.467 57.2031C133.71 57.588 133.94 57.8606 134.157 58.021C134.459 58.2482 134.785 58.3618 135.135 58.3618C135.367 58.3618 135.559 58.3003 135.708 58.1773C135.858 58.0517 135.933 57.9127 135.933 57.7604C135.933 57.6347 135.886 57.5198 135.792 57.4156C135.696 57.314 135.512 57.2151 135.239 57.1189L134.313 56.7821C133.915 56.6378 133.638 56.4801 133.483 56.309C133.328 56.138 133.251 55.9415 133.251 55.7197C133.251 55.4497 133.376 55.2118 133.627 55.006C133.881 54.7975 134.203 54.6933 134.594 54.6933C134.797 54.6933 134.979 54.72 135.139 54.7735C135.299 54.8243 135.457 54.9098 135.612 55.0301L135.72 54.7895ZM139.866 53.4424V53.1136C140.229 53.0869 140.584 52.9746 140.928 52.7769H141.225V57.7123C141.225 57.9207 141.238 58.0517 141.265 58.1052C141.3 58.18 141.351 58.2348 141.417 58.2695C141.484 58.3043 141.613 58.3217 141.802 58.3217H141.931V58.6584H139.866V58.3217H140.074C140.205 58.3217 140.303 58.3016 140.367 58.2615C140.434 58.2214 140.481 58.1666 140.507 58.0972C140.537 58.0277 140.551 57.8887 140.551 57.6802V53.4424H139.866ZM143.362 52.8851C143.49 52.8851 143.6 52.9305 143.691 53.0214C143.782 53.1096 143.827 53.2179 143.827 53.3462C143.827 53.4745 143.782 53.5841 143.691 53.6749C143.6 53.7658 143.49 53.8112 143.362 53.8112C143.234 53.8112 143.124 53.7658 143.033 53.6749C142.942 53.5841 142.897 53.4745 142.897 53.3462C142.897 53.2179 142.942 53.1096 143.033 53.0214C143.124 52.9305 143.234 52.8851 143.362 52.8851ZM142.34 55.3668V55.0341C142.561 55.0073 142.747 54.9699 142.897 54.9218C143.049 54.8737 143.222 54.7975 143.414 54.6933H143.707V57.9087C143.707 58.021 143.723 58.1052 143.755 58.1613C143.787 58.2174 143.831 58.2589 143.887 58.2856C143.946 58.3096 144.052 58.3217 144.204 58.3217H144.392V58.6584H142.34V58.3217H142.504C142.683 58.3217 142.803 58.3056 142.865 58.2736C142.926 58.2415 142.969 58.196 142.993 58.1372C143.02 58.0784 143.033 57.9408 143.033 57.7243V55.3668H142.34ZM144.809 54.7895H145.495V54.1881C145.495 53.7738 145.631 53.4357 145.904 53.1738C146.179 52.9092 146.537 52.7769 146.978 52.7769C147.272 52.7769 147.501 52.8383 147.664 52.9613C147.83 53.0842 147.912 53.2179 147.912 53.3622C147.912 53.4584 147.879 53.54 147.812 53.6068C147.748 53.6709 147.667 53.703 147.568 53.703C147.479 53.703 147.403 53.687 147.339 53.6549C147.275 53.6228 147.176 53.5426 147.042 53.4143C146.901 53.2807 146.766 53.2139 146.638 53.2139C146.549 53.2139 146.469 53.2419 146.397 53.2981C146.327 53.3515 146.273 53.4317 146.233 53.5386C146.195 53.6429 146.176 53.8046 146.176 54.0237V54.7895H146.93V55.1985H146.176V57.8005C146.176 57.9795 146.19 58.0998 146.217 58.1613C146.243 58.2201 146.283 58.2615 146.337 58.2856C146.39 58.3096 146.515 58.3217 146.71 58.3217H146.874V58.6584H144.809V58.3217H144.934C145.145 58.3217 145.278 58.3083 145.335 58.2816C145.393 58.2548 145.435 58.2121 145.459 58.1533C145.486 58.0918 145.498 57.9542 145.495 57.7403V55.1985H144.809V54.7895ZM150.895 57.6241L151.152 57.8325C150.957 58.0651 150.767 58.2495 150.583 58.3858C150.401 58.5221 150.229 58.617 150.065 58.6705C149.902 58.7266 149.711 58.7547 149.492 58.7547C149.099 58.7547 148.765 58.6745 148.49 58.5141C148.174 58.3297 147.933 58.0891 147.764 57.7924C147.596 57.4958 147.512 57.1456 147.512 56.742C147.512 56.3197 147.593 55.9589 147.756 55.6595C147.919 55.3602 148.146 55.1249 148.438 54.9539C148.732 54.7802 149.071 54.6933 149.456 54.6933C149.742 54.6933 149.991 54.7387 150.202 54.8296C150.413 54.9178 150.592 55.0528 150.739 55.2345C150.886 55.4136 150.993 55.6194 151.06 55.852C151.097 55.9883 151.119 56.1647 151.124 56.3812H148.289C148.281 56.5122 148.277 56.6097 148.277 56.6739C148.277 57.0106 148.336 57.3113 148.454 57.5759C148.571 57.8379 148.726 58.0317 148.919 58.1573C149.114 58.2802 149.334 58.3417 149.58 58.3417C149.789 58.3417 149.991 58.2936 150.186 58.1974C150.381 58.0985 150.617 57.9074 150.895 57.6241ZM150.382 56.0043C150.342 55.7584 150.285 55.5767 150.21 55.4591C150.138 55.3414 150.033 55.2479 149.897 55.1784C149.763 55.1089 149.612 55.0742 149.444 55.0742C149.276 55.0742 149.118 55.1089 148.971 55.1784C148.824 55.2479 148.701 55.3441 148.602 55.4671C148.506 55.59 148.422 55.7691 148.349 56.0043H150.382ZM155.358 52.8851C155.486 52.8851 155.596 52.9305 155.686 53.0214C155.777 53.1096 155.823 53.2179 155.823 53.3462C155.823 53.4745 155.777 53.5841 155.686 53.6749C155.596 53.7658 155.486 53.8112 155.358 53.8112C155.229 53.8112 155.12 53.7658 155.029 53.6749C154.938 53.5841 154.893 53.4745 154.893 53.3462C154.893 53.2179 154.938 53.1096 155.029 53.0214C155.12 52.9305 155.229 52.8851 155.358 52.8851ZM154.335 55.3668V55.0341C154.557 55.0073 154.743 54.9699 154.893 54.9218C155.045 54.8737 155.217 54.7975 155.41 54.6933H155.702V57.9087C155.702 58.021 155.719 58.1052 155.751 58.1613C155.783 58.2174 155.827 58.2589 155.883 58.2856C155.942 58.3096 156.047 58.3217 156.2 58.3217H156.388V58.6584H154.335V58.3217H154.5C154.679 58.3217 154.799 58.3056 154.861 58.2736C154.922 58.2415 154.965 58.196 154.989 58.1372C155.016 58.0784 155.029 57.9408 155.029 57.7243V55.3668H154.335ZM157.884 53.4264H158.168V54.7895H159.359V55.1904H158.168V57.608C158.168 57.8138 158.186 57.9608 158.22 58.049C158.258 58.1372 158.319 58.2094 158.405 58.2655C158.493 58.3217 158.59 58.3497 158.697 58.3497C158.951 58.3497 159.232 58.2361 159.539 58.0089V58.3978C159.189 58.6357 158.835 58.7547 158.477 58.7547C158.274 58.7547 158.089 58.7092 157.924 58.6184C157.761 58.5275 157.648 58.4206 157.587 58.2976C157.528 58.1747 157.499 57.9608 157.499 57.6561V55.1904H156.797V54.8537C157.022 54.8029 157.202 54.724 157.338 54.6171C157.477 54.5102 157.59 54.3712 157.675 54.2001C157.761 54.0291 157.83 53.7712 157.884 53.4264ZM162.663 54.7895H162.943L163.304 56.0163L162.943 56.1366C162.799 55.8079 162.596 55.5499 162.334 55.3628C162.075 55.1731 161.811 55.0782 161.544 55.0782C161.338 55.0782 161.171 55.129 161.043 55.2305C160.915 55.3294 160.85 55.4444 160.85 55.5753C160.85 55.6983 160.897 55.8038 160.991 55.8921C161.082 55.9829 161.286 56.0858 161.604 56.2008L162.386 56.4774C162.827 56.6351 163.128 56.8035 163.288 56.9826C163.446 57.1643 163.525 57.3701 163.525 57.6C163.525 57.7951 163.466 57.9836 163.348 58.1653C163.231 58.3444 163.059 58.4874 162.835 58.5943C162.613 58.7012 162.358 58.7547 162.069 58.7547C161.62 58.7547 161.235 58.6264 160.915 58.3698L160.83 58.6584H160.546L160.045 57.3474L160.409 57.2031C160.653 57.588 160.882 57.8606 161.099 58.021C161.401 58.2482 161.727 58.3618 162.077 58.3618C162.31 58.3618 162.501 58.3003 162.651 58.1773C162.8 58.0517 162.875 57.9127 162.875 57.7604C162.875 57.6347 162.828 57.5198 162.735 57.4156C162.639 57.314 162.454 57.2151 162.181 57.1189L161.255 56.7821C160.857 56.6378 160.58 56.4801 160.425 56.309C160.27 56.138 160.193 55.9415 160.193 55.7197C160.193 55.4497 160.318 55.2118 160.57 55.006C160.824 54.7975 161.146 54.6933 161.536 54.6933C161.739 54.6933 161.921 54.72 162.081 54.7735C162.242 54.8243 162.399 54.9098 162.554 55.0301L162.663 54.7895ZM167.654 57.6241L167.911 57.8325C167.716 58.0651 167.526 58.2495 167.341 58.3858C167.16 58.5221 166.987 58.617 166.824 58.6705C166.661 58.7266 166.47 58.7547 166.251 58.7547C165.858 58.7547 165.524 58.6745 165.249 58.5141C164.933 58.3297 164.691 58.0891 164.523 57.7924C164.354 57.4958 164.27 57.1456 164.27 56.742C164.27 56.3197 164.352 55.9589 164.515 55.6595C164.678 55.3602 164.905 55.1249 165.196 54.9539C165.49 54.7802 165.83 54.6933 166.215 54.6933C166.501 54.6933 166.749 54.7387 166.961 54.8296C167.172 54.9178 167.351 55.0528 167.498 55.2345C167.645 55.4136 167.752 55.6194 167.818 55.852C167.856 55.9883 167.877 56.1647 167.883 56.3812H165.048C165.04 56.5122 165.036 56.6097 165.036 56.6739C165.036 57.0106 165.095 57.3113 165.212 57.5759C165.33 57.8379 165.485 58.0317 165.678 58.1573C165.873 58.2802 166.093 58.3417 166.339 58.3417C166.548 58.3417 166.749 58.2936 166.944 58.1974C167.14 58.0985 167.376 57.9074 167.654 57.6241ZM167.141 56.0043C167.101 55.7584 167.043 55.5767 166.969 55.4591C166.896 55.3414 166.792 55.2479 166.656 55.1784C166.522 55.1089 166.371 55.0742 166.203 55.0742C166.034 55.0742 165.877 55.1089 165.73 55.1784C165.583 55.2479 165.46 55.3441 165.361 55.4671C165.265 55.59 165.18 55.7691 165.108 56.0043H167.141ZM168.452 53.4424V53.1136C168.815 53.0869 169.17 52.9746 169.514 52.7769H169.811V57.7123C169.811 57.9207 169.824 58.0517 169.851 58.1052C169.886 58.18 169.937 58.2348 170.004 58.2695C170.07 58.3043 170.199 58.3217 170.388 58.3217H170.517V58.6584H168.452V58.3217H168.66C168.791 58.3217 168.889 58.3016 168.953 58.2615C169.02 58.2214 169.067 58.1666 169.093 58.0972C169.123 58.0277 169.138 57.8887 169.138 57.6802V53.4424H168.452ZM170.934 54.7895H171.619V54.1881C171.619 53.7738 171.756 53.4357 172.028 53.1738C172.304 52.9092 172.662 52.7769 173.103 52.7769C173.397 52.7769 173.625 52.8383 173.788 52.9613C173.954 53.0842 174.037 53.2179 174.037 53.3622C174.037 53.4584 174.003 53.54 173.937 53.6068C173.872 53.6709 173.791 53.703 173.692 53.703C173.604 53.703 173.528 53.687 173.464 53.6549C173.399 53.6228 173.3 53.5426 173.167 53.4143C173.025 53.2807 172.89 53.2139 172.762 53.2139C172.674 53.2139 172.594 53.2419 172.521 53.2981C172.452 53.3515 172.397 53.4317 172.357 53.5386C172.32 53.6429 172.301 53.8046 172.301 54.0237V54.7895H173.055V55.1985H172.301V57.8005C172.301 57.9795 172.314 58.0998 172.341 58.1613C172.368 58.2201 172.408 58.2615 172.461 58.2856C172.515 58.3096 172.639 58.3217 172.834 58.3217H172.998V58.6584H170.934V58.3217H171.058C171.269 58.3217 171.403 58.3083 171.459 58.2816C171.518 58.2548 171.559 58.2121 171.583 58.1533C171.61 58.0918 171.622 57.9542 171.619 57.7403V55.1985H170.934V54.7895Z" fill="#F5F6F4"/>
<path d="M5.40625 5.01877V41.1847C5.56717 55.855 17.7318 67.6993 32.7586 67.6993C47.7855 67.6993 59.9501 55.855 60.111 41.1847V5.01877H5.40625ZM58.2998 40.8836C58.1492 54.6815 46.7892 65.821 32.786 65.821C18.7829 65.821 7.42284 54.6815 7.27562 40.8836V6.87308H58.2998V40.8836Z" fill="#F5F6F4"/>
<path d="M33.7317 60.1969H31.8418V66.102H33.7317V60.1969Z" fill="#F5F6F4"/>
<path d="M20.2522 49.6732H8.83398V51.5241H20.2522V49.6732Z" fill="#F5F6F4"/>
<path d="M16.2502 51.1918H14.3809V53.9869H16.2502V51.1918Z" fill="#F5F6F4"/>
<path d="M56.6294 49.6698H45.0879V51.5309H56.6294V49.6698Z" fill="#F5F6F4"/>
<path d="M50.8562 51.4006H48.9766V53.987H50.8562V51.4006Z" fill="#F5F6F4"/>
<path d="M15.0156 58.9589L22.6369 54.9561L23.6846 56.5059L16.5289 60.2624L15.0156 58.9589Z" fill="#F5F6F4"/>
<path d="M26.6002 58.8691L25.3848 60.9595L26.9768 61.8901L28.3121 59.6458L26.6002 58.8691Z" fill="#F5F6F4"/>
<path d="M37.2637 59.5848L38.6092 61.8941L40.2184 60.9533L38.9447 58.774L37.2637 59.5848Z" fill="#F5F6F4"/>
<path d="M42.0469 56.594L49.069 60.2924L50.4522 58.9273L43.2418 55.1263L42.0469 56.594Z" fill="#F5F6F4"/>
<path d="M38.4464 39.5255L37.474 41.1266C38.7047 42.0827 39.6082 43.3967 40.0599 44.8875C40.5117 46.3783 40.4894 47.9724 39.9963 49.4501C39.5031 50.9277 38.5633 52.216 37.3065 53.1374C36.0497 54.0589 34.5378 54.5679 32.9792 54.5944C31.4206 54.621 29.8922 54.1637 28.6047 53.2856C27.3172 52.4075 26.3341 51.1519 25.7908 49.6919C25.2476 48.2319 25.171 46.6394 25.5717 45.1341C25.9724 43.6288 26.8306 42.2848 28.0279 41.2874L27.0008 39.6794C25.4601 40.8939 24.3388 42.5601 23.7944 44.444C23.25 46.3279 23.3099 48.3349 23.9655 50.1831C24.6212 52.0313 25.8398 53.6278 27.4501 54.7484C29.0604 55.8691 30.9815 56.4575 32.9437 56.4311C34.9059 56.4046 36.8104 55.7647 38.3899 54.6011C39.9694 53.4375 41.1445 51.8088 41.7501 49.9436C42.3557 48.0784 42.3614 46.0705 41.7664 44.202C41.1714 42.3334 40.0056 40.698 38.4327 39.5255H38.4464Z" fill="#F5F6F4"/>
<path d="M41.4104 36.8027L39.8731 37.959C41.7708 39.435 43.1597 41.4663 43.8459 43.7694C44.532 46.0725 44.4812 48.5322 43.7004 50.805C42.9195 53.0777 41.4478 55.05 39.4907 56.4463C37.5336 57.8426 35.1889 58.5932 32.7842 58.5932C30.3795 58.5932 28.0348 57.8426 26.0777 56.4463C24.1206 55.05 22.6489 53.0777 21.8681 50.805C21.0873 48.5322 21.0364 46.0725 21.7226 43.7694C22.4087 41.4663 23.7977 39.435 25.6953 37.959L24.3258 36.6555C22.1825 38.3944 20.6286 40.7521 19.8764 43.4065C19.1242 46.0609 19.2103 48.8826 20.1231 51.4862C21.0359 54.0899 22.7308 56.3485 24.9762 57.9535C27.2217 59.5585 29.9083 60.4318 32.669 60.4539C35.4297 60.476 38.13 59.646 40.4009 58.0772C42.6719 56.5084 44.4028 54.2772 45.3573 51.6886C46.3117 49.0999 46.4432 46.2799 45.7337 43.6138C45.0242 40.9477 43.5084 38.5654 41.3933 36.7924L41.4104 36.8027Z" fill="#F5F6F4"/>
<path d="M31.9129 54.5721L31.8855 37.1409L30.4818 38.6189L29.1362 37.3257L31.8958 34.4552L31.865 15.2142L27.6914 9.76072L29.1636 8.63171L32.7962 13.3804L36.4357 8.63856L37.9079 9.75388L33.7138 15.2176L33.7412 34.4108L36.5384 37.3291L35.21 38.6086L33.7446 37.0896L33.7652 54.6919L31.9129 54.5721Z" fill="#F5F6F4"/>
<path d="M27.9178 52.79V44.8664C27.9343 44.4179 27.9229 43.9689 27.8836 43.5218C27.8185 42.8376 27.3906 41.623 26.1717 39.8132C25.4026 38.6228 24.2706 37.7111 22.9431 37.2131C22.2088 36.9407 21.4544 36.7257 20.6868 36.5699L17.65 39.9364L16.2805 38.6945L18.2971 36.4672C18.2971 36.4672 17.4788 36.5151 17.1261 36.5459C16.7735 36.5767 15.8422 36.6622 15.4143 36.7101L14.0824 36.8607C13.7024 36.9051 12.6547 37.0488 12.6547 37.0488L12.4082 35.2014C12.4082 35.2014 13.6373 35.0542 14.9178 34.9174C16.1983 34.7805 17.0542 34.6711 18.2936 34.63C19.5405 34.562 20.7908 34.6679 22.0084 34.9448C23.3066 35.253 24.527 35.8261 25.5931 36.628C27.0003 37.6544 27.5891 38.626 28.2807 39.7071C28.8877 40.5604 29.3343 41.5168 29.5989 42.5297C29.7403 43.5496 29.7998 44.5793 29.7769 45.6088V54.5314L27.9897 53.7821L27.9178 52.79Z" fill="#F5F6F4"/>
<path d="M37.6892 53.0537V44.7606C37.6312 43.8854 37.7476 43.0075 38.0316 42.1776C38.4339 41.0481 39.0565 40.0097 39.8633 39.1224C40.7241 38.2952 41.7305 37.6341 42.8317 37.1723C43.425 36.9254 44.0439 36.7453 44.6771 36.6351L48.563 40.0188L49.8024 38.6503L47.3099 36.4641C48.0972 36.4496 48.8846 36.493 49.6655 36.5941C51.5348 36.772 53.4316 37.1107 53.4316 37.1107L53.7911 35.2838C53.7911 35.2838 51.819 34.9416 49.9599 34.7637C48.6102 34.6066 47.2498 34.5608 45.8925 34.6269C44.5017 34.7082 43.1357 35.0312 41.8559 35.5814C40.5115 36.1843 39.2974 37.0431 38.2815 38.1097C37.4296 39.0923 36.7658 40.223 36.3231 41.4454C36.0316 42.3126 35.8656 43.217 35.8301 44.1311V54.1758L37.3468 53.6558L37.6892 53.0537Z" fill="#F5F6F4"/>
<path d="M10.5938 31.0618L10.8026 32.9024C10.8026 32.9024 13.8497 32.6116 15.8424 32.4713C17.835 32.3311 19.8447 32.2318 20.978 32.3755C22.3254 32.5151 23.6489 32.8291 24.9153 33.3095C25.4249 33.5093 25.9202 33.7436 26.3978 34.0109C26.6203 34.1341 27.1339 34.5309 27.6098 34.507C28.0857 34.483 28.5103 34.3804 28.6883 34.0109C28.8724 33.4901 28.9253 32.9319 28.8424 32.3858C28.752 31.6316 28.5974 30.8865 28.3802 30.1586C28.2229 29.6722 28.0283 29.1987 27.7981 28.7422C27.5722 28.3077 26.9079 27.3395 26.7402 27.0726C26.4728 26.6768 26.1789 26.2996 25.8603 25.9436L24.4908 27.1718C24.5815 27.2668 24.6661 27.3673 24.7441 27.4729C24.8605 27.6371 24.9496 27.7466 25.1961 28.0853C25.4426 28.424 25.7678 28.9269 25.9561 29.2519C26.176 29.6123 26.3639 29.9912 26.5176 30.3844C26.6435 30.7276 26.733 31.0831 26.7847 31.445C26.8217 31.6538 26.8344 31.8662 26.8223 32.0779C26.7915 32.1258 26.5313 31.9787 26.1821 31.8213C25.8329 31.6639 25.066 31.3765 24.6962 31.2602C24.3264 31.1439 23.6999 30.9728 23.3267 30.8907C22.9535 30.8086 22.2996 30.6854 21.8613 30.6273C21.4231 30.5691 20.5295 30.4802 20.1495 30.4665C19.7694 30.4528 19.0436 30.446 18.6019 30.4665C18.1603 30.487 17.609 30.5075 17.205 30.5281C16.801 30.5486 16.0957 30.5896 15.6746 30.6204C15.2535 30.6512 14.555 30.7025 14.0689 30.7436L12.1516 30.9181L10.5938 31.0618Z" fill="#F5F6F4"/>
<path d="M39.9688 25.9063C39.561 26.257 39.1884 26.6466 38.8561 27.0695C38.2834 27.8566 37.8129 28.713 37.4558 29.6184C37.1596 30.3605 36.9304 31.1276 36.7711 31.9106C36.5918 32.5711 36.6727 33.2751 36.997 33.8778C37.1121 34.0392 37.2675 34.1677 37.4477 34.2505C37.6279 34.3333 37.8266 34.3676 38.0241 34.3499C38.6793 34.3254 39.3175 34.1359 39.8798 33.7991C40.7782 33.2593 41.7572 32.8666 42.7797 32.6359C43.851 32.3569 44.9527 32.211 46.0597 32.2014C47.3482 32.1757 48.6371 32.2145 49.9217 32.3177C51.0139 32.3998 52.5238 32.5401 53.3455 32.6598C54.1672 32.7796 54.8724 32.8822 54.8724 32.8822L55.16 31.0347C55.16 31.0347 53.4482 30.785 52.0068 30.6516C50.5654 30.5181 48.8603 30.3505 47.4874 30.3573C45.9961 30.3241 44.5052 30.4387 43.0365 30.6995C41.2801 31.0416 39.2944 31.9824 39.1677 32.0064C39.041 32.0303 39.0136 32.044 38.9246 31.9824C38.8356 31.9208 38.8287 31.5411 38.8869 31.3427C39.065 30.6363 39.3355 29.9564 39.6915 29.3207C39.9961 28.7638 40.3575 28.2398 40.77 27.7572C40.9207 27.5937 41.0844 27.4426 41.2596 27.3056L39.9688 25.9063Z" fill="#F5F6F4"/>
<path d="M31.8892 31.8211C31.8892 31.8211 31.6016 28.198 30.9682 26.8329C30.1979 25.177 27.1268 22.2656 27.1268 22.2656L19.9369 22.5598L16.9445 28.0338L15.3046 27.1477L17.7731 22.6316L14.2946 22.7548L14.2227 20.9039L25.4115 20.4899L19.1666 14.4994L20.4402 13.1309L25.9182 18.3825L26.603 15.1015L28.397 15.471L27.4794 19.9528C27.4794 19.9528 29.4652 21.9816 30.3451 22.9601C31.3722 24.1199 32.1392 25.1326 32.1392 25.1326L31.8892 31.8211Z" fill="#F5F6F4"/>
<path d="M33.7369 31.7424C33.856 30.2309 34.1963 28.7451 34.7469 27.3324C35.8254 24.7938 38.7356 22.1663 38.7356 22.1663L46.1994 22.5358L49.1643 28.0098L50.8043 27.1237L48.3495 22.6077L51.5678 22.7513L51.6603 20.8868L40.492 20.3907L44.3129 16.7779L46.8259 14.4788L45.5763 13.1103L42.8099 15.7002L39.8962 18.4029L39.2457 15.1254L37.438 15.4846L38.3213 19.9562L35.7261 22.635C34.8387 23.5595 34.0567 24.5796 33.3945 25.6765L33.7369 31.7424Z" fill="#F5F6F4"/>
</svg>
